<?xml version="1.0" standalone="no"?>
<!DOCTYPE svg PUBLIC "-//W3C//DTD SVG 20010904//EN"
 "http://www.w3.org/TR/2001/REC-SVG-20010904/DTD/svg10.dtd">
<svg version="1.0" xmlns="http://www.w3.org/2000/svg"
 width="300.000000pt" height="300.000000pt" viewBox="0 0 300.000000 300.000000"
 preserveAspectRatio="xMidYMid meet">
<metadata>
Created by potrace 1.11, written by Peter Selinger 2001-2013
</metadata>
<g transform="translate(0.000000,300.000000) scale(0.100000,-0.100000)"
fill="#000000" stroke="none">
<path d="M1143 2663 c-29 -59 -81 -169 -116 -243 -36 -74 -97 -202 -137 -285
-40 -82 -95 -197 -122 -255 -84 -175 -143 -299 -206 -430 -33 -69 -84 -177
-115 -240 -30 -63 -85 -178 -122 -255 -37 -77 -87 -180 -110 -230 -24 -49 -82
-171 -129 -269 -47 -98 -85 -180 -84 -181 9 -8 110 -56 112 -53 2 2 17 32 34
68 37 79 129 272 209 440 103 214 174 361 231 480 30 63 79 167 109 230 31 63
77 160 103 215 26 55 78 163 115 240 37 77 84 176 105 220 21 44 69 145 108
225 l70 145 252 -507 252 -506 53 26 c30 15 54 32 54 37 0 6 -138 286 -307
623 l-308 613 -51 -108z"/>
<path d="M2669 2401 l-42 -38 56 -79 c46 -67 105 -177 138 -259 13 -32 37
-126 44 -170 7 -46 7 -189 1 -223 -50 -251 -163 -410 -357 -506 -95 -47 -233
-87 -364 -105 -70 -10 -459 -8 -525 3 -19 3 -56 8 -81 11 -26 3 -88 15 -140
25 -51 11 -96 17 -99 14 -3 -3 -5 -190 -6 -415 l-1 -409 26 -1 c14 -1 42 -2
61 -3 l35 -1 3 330 c1 182 4 335 6 342 4 8 14 9 35 3 17 -4 59 -11 95 -15 35
-3 75 -8 88 -11 40 -9 400 -11 468 -3 169 21 186 24 302 58 84 24 209 86 279
139 129 95 221 236 275 419 37 126 39 303 5 453 -23 103 -96 271 -153 354 -47
68 -93 126 -100 126 -4 0 -26 -17 -49 -39z"/>
</g>
</svg>
